#!OML:ASF E:\Steps\Project 1\Capture day 1\Session 2\Subject.ASF
:FULLY-SPECIFIED
:DEGREES
699
root 9.29387 21.108 -10.8198 -153.394 1.80039 176.392
lowerback -21.7141 -0.0983339 -8.27423
upperback 0.990188 2.59141 -2.22304
thorax 13.1628 0.823488 3.06706
lowerneck 0.824246 -1.16303 -2.42823
upperneck 21.5451 -5.06039 7.03993
head 6.62801 -2.91939 2.31153
rclavicle -4.27387e-015 2.26615e-014
rhumerus -33.5756 -10.209 -81.7432
rradius 37.7257
rwrist -5.24591
rhand -9.68654 -49.0719
rfingers 7.12502
rthumb 16.2855 -78.408
lclavicle -4.27387e-015 2.26615e-014
lhumerus -33.564 4.10238 79.6898
lradius 27.5983
lwrist -3.77329
lhand -18.6668 -13.19
lfingers 7.12502
lthumb 7.62676 16.6525
rfemur -20.0343 4.33725 18.7543
rtibia 14.2671
rfoot -9.8573 -5.30169
rtoes -32.4904
lfemur -63.0912 -10.306 -20.1768
ltibia 54.4635
lfoot -14.3925 -1.26188
ltoes -21.5378
700
root 9.27285 21.1554 -10.8691 -153.033 1.52308 176.673
lowerback -22.0152 -0.205354 -8.00887
upperback 0.858451 2.39522 -2.12162
thorax 13.2057 0.750294 2.97738
lowerneck 0.707918 -0.91226 -1.98001
upperneck 21.7863 -4.69274 6.64402
head 6.69155 -2.7374 2.12569
rclavicle -1.49089e-014 9.14409e-015
rhumerus -33.8889 -10.3074 -81.7117
rradius 37.7831
rwrist -5.34699
rhand -9.17537 -49.4925
rfingers 7.12502
rthumb 16.7776 -78.7876
lclavicle -1.49089e-014 9.14409e-015
lhumerus -33.5974 4.14038 79.5372
lradius 27.9884
lwrist -3.78018
lhand -18.4368 -12.858
lfingers 7.12502
lthumb 7.84872 16.9763
rfemur -20.1868 4.06039 18.9943
rtibia 14.003
rfoot -8.66286 -4.86722
rtoes -32.6013
lfemur -62.9748 -10.4497 -19.8582
ltibia 53.9336
lfoot -14.4632 -1.09883
ltoes -23.67
701
root 9.25319 21.2091 -10.918 -152.871 1.55099 176.685
lowerback -21.9918 -0.0991 -8.09688
upperback 0.889673 2.53411 -2.02048
thorax 13.2049 0.797912 3.18507
lowerneck 0.506648 -1.39129 -2.31384
upperneck 21.6835 -5.31475 6.72394
head 6.73289 -3.03675 2.16946
rclavicle 8.44835e-015 -5.4467e-014
rhumerus -33.9174 -10.7126 -81.2558
rradius 37.7529
rwrist -5.62898
rhand -9.30032 -48.9516
rfingers 7.12502
rthumb 16.6573 -78.2568
lclavicle 8.44835e-015 -5.4467e-014
lhumerus -33.3313 3.74488 79.95
lradius 28.3949
lwrist -3.63148
lhand -18.2745 -12.6624
lfingers 7.12502
lthumb 8.00545 17.166
rfemur -20.2379 3.97986 18.7862
rtibia 14.0282
rfoot -7.92975 -4.00841
rtoes -31.7786
lfemur -62.4904 -10.5097 -19.9071
ltibia 53.1696
lfoot -14.4162 -1.04647
ltoes -22.9349
702
root 9.23159 21.2652 -10.9755 -152.799 1.73449 176.657
lowerback -21.9062 0.0574472 -8.2279
upperback 0.918943 2.75024 -1.9559
thorax 13.1566 0.882555 3.39822
lowerneck 0.481117 -1.39963 -2.27012
upperneck 20.9934 -5.07809 6.50783
head 6.49662 -2.89566 2.11123
rclavicle 1.11319e-014 -3.10104e-014
rhumerus -34.0387 -11.0507 -80.8196
rradius 37.7383
rwrist -5.95816
rhand -9.87927 -48.1935
rfingers 7.12502
rthumb 16.0999 -77.5447
lclavicle 1.11319e-014 -3.10104e-014
lhumerus -33.1938 3.21652 80.417
lradius 28.8088
lwrist -3.26102
lhand -18.3165 -12.361
lfingers 7.12502
lthumb 7.96487 17.469
rfemur -20.2001 3.91569 18.4654
rtibia 13.9492
rfoot -6.40336 -4.04253
rtoes -32.6952
lfemur -61.7254 -10.5118 -20.0523
ltibia 52.1455
lfoot -14.2372 -0.978278
ltoes -21.6475
703
root 9.20929 21.3238 -11.0388 -152.603 1.76678 176.823
lowerback -22.1528 0.0717752 -8.09389
upperback 0.860729 2.74676 -1.87961
thorax 13.2306 0.884492 3.41539
lowerneck 0.679643 -1.37378 -2.85462
upperneck 20.879 -5.13013 7.09544
head 6.45135 -2.93512 2.40013
rclavicle 2.127e-014 3.26007e-014
rhumerus -34.3751 -11.2032 -80.6448
rradius 37.859
rwrist -5.99344
rhand -9.22708 -48.9188
rfingers 7.12502
rthumb 16.7278 -78.2181
lclavicle 2.127e-014 3.26007e-014
lhumerus -33.256 3.12529 80.5054
lradius 29.1033
lwrist -2.90827
lhand -18.3704 -12.6097
lfingers 7.12502
lthumb 7.91285 17.2222
rfemur -20.2606 3.70421 18.4536
rtibia 13.7218
rfoot -4.95783 -3.8317
rtoes -34.6261
lfemur -61.1136 -10.5585 -19.9199
ltibia 51.1599
lfoot -14.0638 -0.819391
ltoes -21.2634
704
root 9.18967 21.3856 -11.0962 -152.556 1.88065 176.788
lowerback -22.2028 0.0673634 -8.18765
upperback 0.851388 2.7698 -1.86464
thorax 13.2413 0.887968 3.49449
lowerneck 0.787998 -1.39554 -3.20067
upperneck 20.7456 -5.22151 7.54121
head 6.41098 -2.98016 2.59941
rclavicle -2.18663e-015 -1.90833e-014
rhumerus -34.6923 -11.6019 -80.4255
rradius 37.8654
rwrist -6.125
rhand -9.25164 -48.583
rfingers 7.12502
rthumb 16.7042 -77.8843
lclavicle -2.18663e-015 -1.90833e-014
lhumerus -32.8423 3.1031 80.5496
lradius 28.9447
lwrist -2.77079
lhand -18.4105 -13.3239
lfingers 7.12502
lthumb 7.87411 16.5094
rfemur -20.276 3.69097 18.1591
rtibia 13.6262
rfoot -3.84093 -3.71074
rtoes -35.5132
lfemur -60.3542 -10.6038 -20.0581
ltibia 50.2128
lfoot -13.9517 -0.702915
ltoes -21.0372
705
root 9.171 21.444 -11.1497 -152.397 2.01407 176.752
lowerback -22.3123 0.0338161 -8.35649
upperback 0.765221 2.77745 -1.8195
thorax 13.1931 0.884985 3.64723
lowerneck 0.967973 -1.48942 -3.5273
upperneck 20.8593 -5.50944 8.02888
head 6.45134 -3.13368 2.79788
rclavicle -2.38542e-015 2.50469e-014
rhumerus -35.1841 -11.8881 -80.1432
rradius 38.1542
rwrist -6.03302
rhand -9.17198 -48.319
rfingers 7.12502
rthumb 16.7809 -77.6139
lclavicle -2.38542e-015 2.50469e-014
lhumerus -32.5268 3.07641 80.6433
lradius 28.8504
lwrist -2.91748
lhand -18.3637 -13.4452
lfingers 7.12502
lthumb 7.9193 16.3864
rfemur -20.3781 3.61258 17.8117
rtibia 13.4204
rfoot -2.80496 -3.46503
rtoes -36.0884
lfemur -59.7209 -10.5642 -20.213
ltibia 49.2282
lfoot -13.8219 -0.666117
ltoes -20.7574
